Coordinates
version=1
nRows=14
nColumns=36
inDegrees=yes

Units are S.I. units (second, meters, Newtons, ...)
If the header above contains a line with 'inDegrees', this indicates whether rotational values are in degrees (yes) or radians (no).

endheader
time	pelvis_tilt	pelvis_list	pelvis_rotation	pelvis_tx	pelvis_ty	pelvis_tz	hip_flexion_r	hip_adduction_r	hip_rotation_r	knee_angle_r	knee_angle_r_beta	ankle_angle_r	subtalar_angle_r	mtp_angle_r	hip_flexion_l	hip_adduction_l	hip_rotation_l	knee_angle_l	knee_angle_l_beta	ankle_angle_l	subtalar_angle_l	mtp_angle_l	lumbar_extension	lumbar_bending	lumbar_rotation	arm_flex_r	arm_add_r	arm_rot_r	elbow_flex_r	pro_sup_r	arm_flex_l	arm_add_l	arm_rot_l	elbow_flex_l	pro_sup_l
      1.20000000	     -1.01084269	      2.79623618	      1.19194443	      0.23990006	      1.26150562	     -0.55801725	      3.06710095	     -4.85227277	      1.69952676	     10.64848409	      0.18585111	     11.51516413	     -5.14803556	     -7.49999987	     -0.89438938	      0.96487677	     -3.61487517	      4.29964218	      0.07504291	     14.10111962	     -2.83670675	     -7.49999987	     -4.15830159	     -1.97292606	     -0.06417832	      6.96594224	     -9.85213948	     17.49482012	     21.69077946	     92.73994121	      3.18466723	    -10.75645760	     13.63333072	     22.07382859	     94.58896284
      1.21666670	     -1.01628297	      2.80826233	      1.28574560	      0.24083721	      1.26175689	     -0.55807535	      3.00222312	     -4.86977516	      1.68827464	     10.57536942	      0.18457502	     11.63086715	     -4.98329691	     -7.49999987	     -0.95696150	      0.98862919	     -3.47623972	      4.20572491	      0.07340375	     14.08285711	     -2.86784293	     -7.49999987	     -4.09152394	     -2.01417006	     -0.14650733	      6.85702286	     -9.94177661	     17.66093552	     21.71577777	     93.77524052	      3.46776101	    -10.72549542	     14.04310980	     21.83511226	     95.52773668
      1.23333330	     -1.03391627	      2.82579802	      1.29972410	      0.24008170	      1.26154953	     -0.55813500	      3.00634895	     -4.87623163	      1.77548442	     10.53531188	      0.18387588	     11.58549272	     -5.03426212	     -7.49999987	     -0.93855824	      1.01629205	     -3.54662439	      4.20989113	      0.07347646	     14.09476524	     -2.83551860	     -7.49999987	     -4.14725570	     -2.04281655	     -0.12232542	      6.55658343	     -9.84635643	     15.77071884	     22.26400774	     96.73774734	      3.44096275	    -10.62967205	     12.74357629	     22.22970863	     98.31660348
      1.25000000	     -1.05823377	      2.83996230	      1.27658016	      0.24097940	      1.26179532	     -0.55794992	      3.05174571	     -4.89310858	      1.79283700	     10.55009726	      0.18413393	     11.59817862	     -5.00271358	     -7.49999987	     -0.92294867	      1.03631348	     -3.57587742	      4.21989728	      0.07365110	     14.10356656	     -2.83818365	     -7.49999987	     -4.15153477	     -2.07193579	     -0.16578207	      6.56129974	     -9.83120137	     15.94366466	     22.24653132	     96.09844074	      3.51613447	    -10.58190202	     12.82074574	     22.13781899	     97.62350864
      1.26666670	     -0.98359837	      2.84356723	      1.23504091	      0.24007753	      1.26169883	     -0.55806196	      2.98631248	     -4.89481039	      1.85080972	     10.57678373	      0.18459970	     11.60841154	     -4.99166894	     -7.49999987	     -0.98245333	      1.03982542	     -3.65146139	      4.24891331	      0.07415753	     14.14741369	     -2.69525679	     -7.49999987	     -4.35008760	     -2.09742102	     -0.14156242	      6.49144282	     -9.92561803	     16.04879252	     22.68037104	     94.91212332	      3.51050560	    -10.63206846	     12.84895618	     22.56639941	     96.43391600
      1.28333330	     -1.04648083	      2.85256008	      1.22404689	      0.24098086	      1.26187167	     -0.55798595	      3.10249153	     -4.91825628	      1.81514839	     10.72424141	      0.18717332	     11.65440125	     -4.91072219	     -7.49999987	     -0.87070097	      1.06498499	     -3.63479201	      4.32550381	      0.07549428	     14.04513171	     -2.90967132	     -7.49999987	     -4.23586108	     -2.11805144	     -0.11138698	      6.70160737	     -9.89841846	     16.55640731	     22.23831703	     94.88490663	      3.72406578	    -10.57010526	     13.24474545	     21.97867229	     96.35976581
      1.30000000	     -0.95085001	      2.86166964	      1.19926904	      0.24007077	      1.26171624	     -0.55808057	      3.00300859	     -4.92210913	      1.87056625	     10.79647188	      0.18843398	     11.65435743	     -4.93355223	     -7.49999987	     -0.95404357	      1.07905899	     -3.72932817	      4.35923783	      0.07608305	     14.00942185	     -2.92475988	     -7.49999987	     -4.46515060	     -2.13660701	     -0.06432891	      6.61826707	    -10.00669995	     16.52779229	     22.81249118	     93.88060714	      3.64785964	    -10.63343244	     13.18909211	     22.58794571	     95.38457943
      1.31666670	     -0.97508340	      2.86438313	      1.20073836	      0.24094412	      1.26578337	     -0.55797238	      3.00458304	     -4.93383177	      1.84218098	     10.81700576	      0.18879237	     11.73440050	     -4.73528894	     -7.49999987	     -0.94045728	      1.10038846	     -3.81062542	      4.37029351	      0.07627601	     13.99020829	     -2.90852150	     -7.49999987	     -4.34328159	     -2.15248663	     -0.08869625	      7.02212000	     -9.88044396	     17.38815221	     21.89668467	     92.99686440	      3.99805538	    -10.53553155	     13.86327194	     21.58408280	     94.45542455
      1.33333330	     -0.96673802	      2.86762319	      1.16985807	      0.23988102	      1.26148410	     -0.55802699	      2.95715381	     -4.91541382	      1.96938186	     10.81254471	      0.18871451	     11.69756732	     -4.83285286	     -7.49999987	     -0.98157734	      1.12233563	     -3.74832944	      4.34024977	      0.07575165	     13.87638857	     -3.14119149	     -7.49999987	     -4.34397298	     -2.17647956	     -0.00981642	      6.94695812	     -9.92738714	     17.19426441	     22.03013510	     93.60551101	      4.10947653	    -10.49289242	     13.66458708	     21.54347613	     94.98567819
      1.35000000	     -0.92500269	      2.87085288	      1.19014169	      0.24071840	      1.26183636	     -0.55790543	      2.85293711	     -4.91404640	      1.96540190	     10.79897577	      0.18847768	     11.80239848	     -4.72860409	     -7.49999987	     -1.06885408	      1.13566749	     -3.86251834	      4.29106134	      0.07489315	     13.98344189	     -2.96113775	     -7.49999987	     -4.37337742	     -2.19468917	     -0.00938589	      7.04484135	     -9.88126380	     17.33583840	     21.93846720	     93.49655667	      4.16008094	    -10.47812335	     13.84054500	     21.48167805	     94.96011219
      1.36666670	     -0.84799128	      2.87698108	      1.21243451	      0.23967430	      1.26170783	     -0.55802538	      2.77507538	     -4.89086071	      2.10559165	     10.84295511	      0.18924527	     11.75258509	     -4.78018935	     -7.49999987	     -1.17499706	      1.14392290	     -3.89537806	      4.26568368	      0.07445023	     13.88888842	     -2.97113369	     -7.49999987	     -4.54245240	     -2.20417524	      0.06825107	      7.07211771	     -9.89406596	     17.35480848	     21.93367505	     92.92650315	      4.27479672	    -10.46403647	     13.80364465	     21.56657373	     94.46618762
      1.38333330	     -0.80281640	      2.89536581	      1.18579258	      0.24064373	      1.26209696	     -0.55785428	      2.74207860	     -4.88451794	      2.33256516	     10.91161256	      0.19044357	     11.83667485	     -4.78042709	     -7.49999987	     -1.26281125	      1.17162420	     -3.85323727	      4.24490360	      0.07408754	     13.97525017	     -3.01665050	     -7.49999987	     -4.72395304	     -2.24866938	      0.14378723	      6.84379416	    -10.03450898	     17.32753124	     22.70364593	     91.54213042	      4.03061280	    -10.55820921	     13.74413740	     22.44605452	     93.08340264
      1.40000000	     -0.80575627	      2.91143452	      1.21180995	      0.23964144	      1.26196793	     -0.55802624	      2.82014212	     -4.90769648	      2.22052506	     11.03286632	      0.19255984	     11.90639189	     -4.66439852	     -7.49999987	     -1.23674114	      1.19609718	     -3.86685167	      4.35195017	      0.07595586	     13.94781684	     -3.08222330	     -7.49999987	     -4.77602423	     -2.21973722	      0.00670345	      7.14635414	     -9.89295837	     17.62404717	     22.09049071	     91.46137825	      4.22822984	    -10.52421683	     13.96400612	     21.82575711	     92.99267348
      1.41666670	     -0.91526784	      2.94672100	      1.21174063	      0.24073442	      1.26225709	     -0.55779809	      3.02023303	     -4.94097206	      2.26139322	     11.13751125	      0.19438624	     11.96562871	     -4.58889919	     -7.49999987	     -1.09512030	      1.23320491	     -3.83219615	      4.45985889	      0.07783922	     13.92545192	     -3.19691774	     -7.49999987	     -4.60190677	     -2.30202746	     -0.05434789	      7.40985175	     -9.75874884	     18.14189792	     21.38288165	     92.32729437	      4.41209237	    -10.48531078	     14.34602424	     21.15090555	     93.80116898
